<svg xmlns="http://www.w3.org/2000/svg" viewBox="0 0 800 500" role="img" aria-labelledby="title description">
  <title id="title">Fictional viewpoint memory</title>
  <desc id="description">A blue bundle on a table above distant stylized hills.</desc>
  <defs>
    <linearGradient id="sky" x1="0" y1="0" x2="0" y2="1">
      <stop offset="0" stop-color="#9bbce5"/>
      <stop offset="1" stop-color="#f2d9c2"/>
    </linearGradient>
  </defs>
  <rect width="800" height="500" rx="36" fill="url(#sky)"/>
  <circle cx="630" cy="105" r="55" fill="#ffe4a4"/>
  <path d="M0 360L150 235l120 105 130-145 155 155 120-120 125 115v155H0Z" fill="#667e9f" opacity=".85"/>
  <path d="M0 402l190-98 155 91 160-93 140 80 155-70v188H0Z" fill="#536b80"/>
  <rect x="215" y="352" width="370" height="34" rx="17" fill="#7d5d4b"/>
  <rect x="300" y="385" width="30" height="90" rx="10" fill="#654839"/>
  <rect x="470" y="385" width="30" height="90" rx="10" fill="#654839"/>
  <rect x="325" y="245" width="150" height="115" rx="28" fill="#5c84c4"/>
  <path d="M350 245q50-70 100 0" fill="none" stroke="#dce9ff" stroke-width="16"/>
  <path d="M365 295h70" stroke="#dce9ff" stroke-width="13" stroke-linecap="round"/>
  <text x="400" y="70" text-anchor="middle" font-family="system-ui, sans-serif" font-size="30" font-weight="700" fill="#435978">DEMO VIEWPOINT · FICTIONAL</text>
</svg>
