<svg xmlns="http://www.w3.org/2000/svg" viewBox="0 0 800 500" role="img" aria-labelledby="title description">
  <title id="title">Fictional cafe memory</title>
  <desc id="description">Two warm drinks on a cafe table beneath hanging lights.</desc>
  <defs>
    <linearGradient id="background" x1="0" y1="0" x2="1" y2="1">
      <stop offset="0" stop-color="#f7dcc2"/>
      <stop offset="1" stop-color="#b77b69"/>
    </linearGradient>
  </defs>
  <rect width="800" height="500" rx="36" fill="url(#background)"/>
  <circle cx="190" cy="105" r="34" fill="#fff4c9" opacity=".9"/>
  <circle cx="610" cy="105" r="34" fill="#fff4c9" opacity=".9"/>
  <rect x="115" y="318" width="570" height="38" rx="19" fill="#7e5749"/>
  <rect x="205" y="354" width="36" height="105" rx="12" fill="#69483f"/>
  <rect x="559" y="354" width="36" height="105" rx="12" fill="#69483f"/>
  <rect x="260" y="220" width="100" height="112" rx="24" fill="#f6f0e8"/>
  <path d="M360 248h28c40 0 40 57 0 57h-28" fill="none" stroke="#f6f0e8" stroke-width="18"/>
  <rect x="440" y="220" width="100" height="112" rx="24" fill="#dceaf1"/>
  <path d="M540 248h28c40 0 40 57 0 57h-28" fill="none" stroke="#dceaf1" stroke-width="18"/>
  <path d="M292 205c-18-25 20-39 2-65M478 205c-18-25 20-39 2-65" fill="none" stroke="#fff7e5" stroke-width="10" stroke-linecap="round" opacity=".8"/>
  <text x="400" y="75" text-anchor="middle" font-family="system-ui, sans-serif" font-size="30" font-weight="700" fill="#69483f">LANTERN CAFE · FICTIONAL</text>
</svg>
